<?xml version="1.0" encoding="UTF-8"?>
<svg id="_レイヤー_1" data-name="レイヤー 1" xmlns="http://www.w3.org/2000/svg" viewBox="0 0 2834.65 2834.65">
  <defs>
    <style>
      .cls-1, .cls-2, .cls-3 {
        fill: #231815;
      }

      .cls-1, .cls-4 {
        stroke-width: 0px;
      }

      .cls-5, .cls-2 {
        stroke: #231815;
        stroke-miterlimit: 10;
        stroke-width: 10px;
      }

      .cls-5, .cls-4 {
        fill: #fff;
      }

      .cls-3 {
        font-family: 'TA_rehitsu_m-83pv-RKSJ-H', TA_rehitsu_m;
        font-size: 500px;
        glyph-orientation-vertical: 0deg;
        text-orientation: upright;
        writing-mode: tb;
      }
    </style>
  </defs>
  <circle class="cls-5" cx="1417.32" cy="1433.61" r="1173.06"/>
  <text class="cls-3" transform="translate(1417.32 673.04)"><tspan x="0" y="0">筬工房</tspan></text>
  <line class="cls-2" x1="651.72" y1="544.82" x2="651.72" y2="2325.88"/>
  <g>
    <rect class="cls-1" x="519.8" y="673.26" width="131.92" height="10"/>
    <rect class="cls-1" x="498.6" y="728.18" width="153.12" height="10"/>
    <rect class="cls-1" x="477.41" y="783.1" width="174.31" height="10"/>
    <rect class="cls-1" x="456.21" y="838.02" width="195.51" height="10"/>
    <rect class="cls-1" x="435.02" y="892.94" width="216.7" height="10"/>
    <rect class="cls-1" x="413.82" y="947.86" width="237.89" height="10"/>
    <rect class="cls-1" x="392.63" y="1002.77" width="259.09" height="10"/>
    <rect class="cls-1" x="371.43" y="1057.69" width="280.28" height="10"/>
    <rect class="cls-1" x="350.24" y="1112.61" width="301.48" height="10"/>
    <rect class="cls-1" x="329.05" y="1167.53" width="322.67" height="10"/>
    <rect class="cls-1" x="307.85" y="1222.45" width="343.87" height="10"/>
    <rect class="cls-1" x="286.66" y="1277.37" width="365.06" height="10"/>
    <rect class="cls-1" x="265.46" y="1332.29" width="386.26" height="10"/>
    <rect class="cls-1" x="244.27" y="1387.21" width="407.45" height="10"/>
    <rect class="cls-1" x="265.24" y="1448.23" width="386.48" height="10"/>
    <rect class="cls-1" x="286.21" y="1509.25" width="365.51" height="10"/>
    <rect class="cls-1" x="307.18" y="1570.27" width="344.54" height="10"/>
    <rect class="cls-1" x="328.15" y="1631.29" width="323.57" height="10"/>
    <rect class="cls-1" x="349.12" y="1692.31" width="302.6" height="10"/>
    <rect class="cls-1" x="370.09" y="1753.33" width="281.63" height="10"/>
    <rect class="cls-1" x="391.06" y="1814.36" width="260.66" height="10"/>
    <rect class="cls-1" x="412.03" y="1875.38" width="239.69" height="10"/>
    <rect class="cls-1" x="433" y="1936.4" width="218.72" height="10"/>
    <rect class="cls-1" x="453.97" y="1997.42" width="197.75" height="10"/>
    <rect class="cls-1" x="474.93" y="2058.44" width="176.78" height="10"/>
    <rect class="cls-1" x="495.9" y="2119.46" width="155.81" height="10"/>
    <rect class="cls-1" x="516.87" y="2180.49" width="134.84" height="10"/>
  </g>
  <path class="cls-1" d="M1921.04,654.97c.26,1.36.49,2.72.69,4.09.04.27.17,1.25.03.18.04.29.07.57.11.86.11.86.2,1.72.28,2.59.26,2.72.41,5.46.45,8.19s-.03,5.45-.21,8.17c-.09,1.43-.21,2.86-.36,4.29-.06.57-.12,1.14-.19,1.71-.05.43-.1.85-.16,1.28.12-.9,0-.03-.06.38-.81,5.49-2.03,10.91-3.61,16.22-.8,2.71-1.7,5.39-2.68,8.04-.45,1.23-.93,2.45-1.42,3.66-.14.34-.27.67-.41,1.01-.09.23-.48,1.13-.09.22-.29.67-.58,1.34-.88,2.01-4.68,10.49-10.68,20.31-17.61,29.46-.1.14-.58.75-.03.04-.18.23-.36.47-.55.7-.46.58-.92,1.16-1.38,1.73-.93,1.15-1.87,2.28-2.83,3.4-1.87,2.18-3.79,4.31-5.78,6.39-3.95,4.14-8.13,8.05-12.49,11.75-1.14.97-2.29,1.92-3.45,2.86-.55.44-1.1.89-1.66,1.32-.31.24-.62.49-.93.73-.19.15-.37.29-.56.43.33-.25.36-.28.08-.06-2.44,1.84-4.89,3.66-7.4,5.41-4.95,3.45-10.05,6.69-15.25,9.73-10.54,6.16-21.52,11.53-32.74,16.32-.29.12-.58.25-.87.37.95-.4-.49.21-.55.23-.58.24-1.17.49-1.75.73-1.54.63-3.08,1.26-4.62,1.87-2.87,1.14-5.76,2.25-8.65,3.33-5.72,2.13-11.48,4.16-17.27,6.09-12.25,4.1-24.62,7.91-37.06,11.4-13.23,3.72-26.59,7-40.12,9.39-3.39.6-6.79,1.14-10.2,1.62-.35.05-.7.1-1.05.14.79-.11-.32.04-.51.06-.79.1-1.57.2-2.36.29-1.75.21-3.5.4-5.26.57-6.84.67-13.7,1.06-20.57,1.1-3.35.02-6.71-.05-10.06-.2-2.62-.12-5.12,2.38-5,5,.13,2.81,2.2,4.88,5,5,28.21,1.26,56.34-3.69,83.53-10.82,13.06-3.43,26-7.33,38.86-11.47,11.84-3.82,23.59-7.93,35.14-12.58,23.52-9.48,46.09-21.13,66.14-36.75,18.73-14.59,34.63-32.99,45.41-54.22,10.53-20.74,16.38-44.32,13.9-67.64-.33-3.11-.78-6.22-1.36-9.29-.48-2.58-3.73-4.28-6.15-3.49-2.75.89-4.01,3.39-3.49,6.15h0Z"/>
  <path class="cls-1" d="M1129.53,905.21c-20,6.78-38,18.87-52.2,34.48-14.2,15.6-24.82,34.53-30.32,54.91s-5.59,41.99-.08,62.4c5.46,20.25,16.08,39,30.18,54.49s31.93,27.58,51.7,34.52c2.37.83,4.78,1.58,7.2,2.26s5.55-.86,6.15-3.49-.8-5.4-3.49-6.15c-2.42-.67-4.82-1.42-7.2-2.26-1.13-.4-2.25-.81-3.36-1.24-.56-.22-1.11-.44-1.67-.66-.28-.11-.55-.23-.83-.34-.34-.14-.22-.09.37.16-.22-.09-.44-.19-.66-.28-4.49-1.94-8.86-4.17-13.08-6.65s-8.6-5.26-12.46-8.42c1.05.86-.43-.34-.68-.54-.47-.37-.93-.75-1.4-1.13-1.02-.83-2.02-1.68-3.01-2.55-1.8-1.57-3.56-3.2-5.27-4.87-3.6-3.51-6.99-7.24-10.16-11.15-.38-.47-.75-.93-1.12-1.4-.15-.19-.31-.37-.44-.57.75,1.07.05.07-.1-.13-.8-1.05-1.58-2.11-2.35-3.18-1.39-1.95-2.73-3.94-4.01-5.96-2.69-4.25-5.14-8.65-7.31-13.18-.52-1.08-1.02-2.16-1.51-3.26-.24-.55-.48-1.09-.72-1.64-.36-.82.03.08.09.2-.21-.43-.37-.89-.55-1.33-.92-2.27-1.77-4.57-2.55-6.89-1.58-4.69-2.87-9.48-3.85-14.34-.24-1.17-.46-2.34-.66-3.52-.1-.59-.2-1.18-.29-1.77-.04-.24-.07-.47-.11-.71-.04-.3-.35-1.92-.07-.45-.45-2.39-.56-4.9-.72-7.32-.33-4.98-.31-9.99.04-14.97.08-1.2.19-2.4.31-3.6.06-.6.13-1.2.2-1.79.03-.24.06-.48.09-.72.03-.24.06-.48.09-.72-.1.73-.11.82-.03.26.36-2.44.76-4.87,1.25-7.28,1-4.89,2.31-9.71,3.9-14.44.81-2.39,1.69-4.76,2.64-7.11.14-.34.8-2.1.33-.81.21-.56.48-1.11.72-1.66.51-1.16,1.04-2.31,1.59-3.45,2.16-4.51,4.59-8.9,7.26-13.13,1.35-2.14,2.77-4.25,4.24-6.31.7-.98,1.42-1.95,2.15-2.91.12-.15.38-.42.44-.58l-.34.44c.15-.19.3-.38.45-.57.41-.52.82-1.04,1.24-1.56,3.15-3.89,6.52-7.59,10.11-11.09,1.81-1.77,3.67-3.48,5.58-5.13.91-.79,1.83-1.56,2.76-2.32.47-.38.93-.76,1.41-1.13.19-.15.38-.3.57-.45.8-.63-.76.58.27-.21,3.97-3.02,8.12-5.8,12.44-8.31,2.18-1.27,4.41-2.46,6.67-3.59,1.08-.53,2.16-1.05,3.26-1.55.55-.25,1.1-.5,1.65-.74.22-.1.44-.19.66-.29.94-.41-.91.37.3-.13,2.29-.95,4.6-1.81,6.94-2.61,2.47-.84,4.36-3.48,3.49-6.15-.79-2.46-3.5-4.39-6.15-3.49h0Z"/>
  <path class="cls-1" d="M1658.04,1198.1c9.94,2.78,19.82,5.86,29.41,9.7.57.23,1.13.46,1.7.69.23.09.45.19.68.28.35.15,1.11.73.15.06,1.02.71,2.53,1.1,3.68,1.61,2.31,1.05,4.6,2.15,6.86,3.31,4.44,2.29,8.76,4.82,12.87,7.65.96.66,1.92,1.35,2.86,2.04.23.17,1.82,1.29.66.49.57.39,1.1.87,1.64,1.3,1.88,1.53,3.69,3.15,5.43,4.84s3.37,3.45,4.92,5.3c.37.44.73.88,1.09,1.33.17.21.96,1.08.07.07.15.17.28.37.42.55.76,1.01,1.49,2.05,2.19,3.1,1.35,2.03,2.59,4.15,3.7,6.32.54,1.05,1.05,2.12,1.52,3.2.08.19.67,1.38.12.26.15.29.25.61.37.92.26.67.52,1.35.76,2.03.93,2.64,1.67,5.35,2.24,8.09.26,1.27.47,2.55.67,3.83.13.8-.14-1.25,0,.02.04.39.09.77.13,1.16.07.71.14,1.42.19,2.13.21,2.79.24,5.59.12,8.39-.06,1.31-.15,2.61-.27,3.92-.06.65-.13,1.31-.21,1.96-.03.26-.06.52-.1.78.23-1.37-.06.37-.1.63-.85,5.51-2.27,10.94-4.14,16.19-.45,1.26-.92,2.51-1.42,3.75-.13.31-.26.62-.38.93-.31.75.48-1.09-.04.1-.33.74-.65,1.47-.98,2.2-1.18,2.56-2.47,5.07-3.85,7.52s-2.86,4.83-4.44,7.15c-.75,1.1-1.51,2.19-2.3,3.26-.4.54-.8,1.08-1.21,1.61.69-.91-.17.21-.26.33-.26.33-.53.66-.79.99-7.41,9.22-16.09,17.35-25.33,24.71-.61.48-1.22.97-1.83,1.44-.2.15-.95.74-.16.13-.28.22-.56.43-.84.65-1.24.95-2.48,1.88-3.74,2.8-2.4,1.77-4.83,3.5-7.28,5.19-4.96,3.44-10.01,6.76-15.09,10.03-22.86,14.71-45.91,29.13-68.88,43.68-2.94,1.86-5.88,3.72-8.82,5.59-2.21,1.4-3.29,4.51-1.79,6.84s4.48,3.29,6.84,1.79c23.93-15.16,47.87-30.3,71.78-45.49,20.67-13.14,41.58-26.88,57.97-45.31,15.92-17.9,27.16-40.66,27.71-64.95.26-11.73-2.29-23.4-7.69-33.83-4.7-9.08-11.57-17.03-19.5-23.45-16.65-13.49-37.04-21.33-57.38-27.4-2.41-.72-4.83-1.42-7.26-2.1s-5.55.87-6.15,3.49.8,5.4,3.49,6.15h0Z"/>
  <path class="cls-1" d="M1218.32,1470.31c-37.97,18.81-75.95,37.61-113.91,56.44-16.8,8.33-33.64,16.86-48.79,27.99-14.13,10.37-26.28,22.84-35.93,37.5-18.2,27.64-27.1,61.89-23.66,94.88,1.91,18.35,7.19,36.79,19.31,51.1s29.53,22.48,46.02,29.99c35.94,16.36,74.26,26.91,113.5,31.26,4.67.52,9.34.94,14.02,1.28,2.61.19,5.11-2.44,5-5-.13-2.87-2.2-4.8-5-5-19.04-1.38-37.27-4.17-56.03-8.59s-36.6-10.13-54.17-17.29c-8.14-3.32-16.72-7.23-24.9-11.35-4.05-2.04-8.06-4.17-11.95-6.51-3.47-2.08-7.47-4.76-10.13-6.9-7.05-5.67-12.17-11.72-16.31-19.59-2.08-3.96-3.31-6.97-4.72-11.27s-2.42-8.38-3.24-12.66c-5.85-30.44.43-63.8,15.86-91.08,1.99-3.52,4.13-6.95,6.41-10.29,1.02-1.5,2.08-2.97,3.16-4.43,1.2-1.61,1.93-2.55,3.49-4.44,5.22-6.34,11.01-12.19,17.3-17.47,6.6-5.55,13.98-10.59,21.66-15.25,7.96-4.83,16.18-9.2,24.47-13.41,36.43-18.49,73.21-36.32,109.82-54.46,4.59-2.28,9.18-4.55,13.78-6.83,2.42-1.2,3.09-4.63,1.79-6.84-1.44-2.47-4.41-3-6.84-1.79h0Z"/>
  <path class="cls-1" d="M1628.8,1814.13c19.15,5.52,39.29,5.98,59.01,4.03,20.1-1.99,39.88-6.17,59.74-9.72,4.77-.85,9.55-1.68,14.35-2.41.88-.13,1.77-.26,2.65-.39.41-.06.83-.12,1.24-.17.91-.13-.13.01-.26.03.29-.05.6-.08.89-.12,1.85-.24,3.71-.46,5.57-.65,7.64-.81,15.31-1.26,22.99-1.26,3.84,0,7.68.11,11.51.35,1.87.12,3.75.26,5.62.45.96.09,1.92.19,2.88.31.42.05.84.1,1.26.15.31.04,2.09.19.64.08,3.69.27,7.47,1.18,11.08,1.98s7.18,1.77,10.69,2.91c1.71.56,3.4,1.15,5.08,1.8.81.31,1.61.63,2.41.96.26.11.88.28-.24-.1.21.07.43.18.63.27.42.18.84.37,1.26.56,3.28,1.48,6.47,3.15,9.54,5.02,1.51.92,2.98,1.88,4.43,2.9.75.52,1.48,1.06,2.21,1.61.18.14.36.28.54.41,0,0-.77-.61-.34-.26.4.32.8.64,1.2.96,2.81,2.3,5.45,4.8,7.9,7.49,1.23,1.35,2.4,2.74,3.53,4.17,1.63,2.06,5.39,1.83,7.07,0,2.01-2.19,1.74-4.87,0-7.07-9.49-12.02-22.37-20.6-36.52-26.19-14.28-5.64-29.77-8.02-45.05-8.61-15.96-.61-31.88.93-47.61,3.5-9.86,1.61-19.66,3.51-29.49,5.32-4.93.91-9.86,1.8-14.8,2.63-2.5.42-5.01.82-7.52,1.2-1.17.18-2.35.35-3.52.52-.63.09-1.25.17-1.88.26-.81.11.74-.09-.08.01-.39.05-.78.1-1.17.15-9.75,1.26-19.58,2.08-29.42,2.04-4.94-.02-9.88-.25-14.79-.74-1.07-.11-2.15-.23-3.22-.36-1-.12-.25-.03-.05,0-.31-.04-.61-.08-.92-.13-.69-.1-1.37-.2-2.06-.31-2.45-.39-4.88-.86-7.3-1.4s-4.7-1.13-7.03-1.8c-2.51-.72-5.56.88-6.15,3.49s.8,5.37,3.49,6.15h0Z"/>
  <circle class="cls-5" cx="2019.05" cy="2095.74" r="263.81"/>
  <g>
    <path class="cls-1" d="M1821.74,1931.24c2.6,16,3.84,32.22,3.79,48.44-.05,16.21-1.37,32.43-3.98,48.43-2.62,16.03-6.47,31.85-11.52,47.29-5.05,15.42-11.29,30.44-18.71,44.87-7.42,14.44-15.98,28.29-25.63,41.34-1.18,1.59-2.37,3.17-3.58,4.74-.83,1.07-1.04,2.5,0,3.54.86.86,2.7,1.07,3.54,0,10.15-13.12,19.24-27.03,27.12-41.64,7.87-14.59,14.57-29.84,20.04-45.49,5.43-15.52,9.64-31.47,12.59-47.65,2.97-16.32,4.69-32.88,5.06-49.47.37-16.59-.63-33.19-2.96-49.63-.29-2.04-.6-4.07-.93-6.1-.22-1.33-1.87-2.08-3.08-1.75-1.42.39-1.96,1.74-1.75,3.08h0Z"/>
    <path class="cls-1" d="M1849.77,1922.11c3.01,18.77,4.35,37.79,4.11,56.79-.23,18.92-2.03,37.82-5.38,56.45s-8.26,37.17-14.64,55.08c-5.87,16.49-13.09,32.51-21.82,47.69s-18.72,29.17-30.55,41.82c-1.45,1.56-2.94,3.09-4.44,4.6-2.27,2.28,1.26,5.82,3.54,3.54,12.42-12.47,23.15-26.58,32.31-41.59s17.07-31.57,23.43-48.32c6.75-17.76,11.97-36.1,15.7-54.72,3.8-18.99,6.06-38.31,6.69-57.66.63-19.37-.42-38.76-3.08-57.95-.33-2.35-.68-4.7-1.06-7.04-.21-1.33-1.88-2.08-3.08-1.75-1.42.39-1.96,1.74-1.75,3.08h0Z"/>
    <path class="cls-1" d="M1877.81,1912.99c3.36,21.21,4.8,42.72,4.43,64.19-.37,21.39-2.55,42.73-6.53,63.75-3.97,21-9.67,41.7-17.11,61.74-6.73,18.12-15.05,35.7-25.29,52.11s-21.84,30.87-35.96,43.41c-1.75,1.55-3.53,3.06-5.34,4.54-1.05.85-.89,2.65,0,3.54,1.04,1.04,2.49.86,3.54,0,14.89-12.15,27.5-26.9,38.14-42.86s19.75-34.07,27.02-52.34c7.9-19.86,13.97-40.48,18.35-61.39,4.46-21.28,7.14-42.94,7.97-64.67.83-21.82-.25-43.69-3.21-65.33-.37-2.68-.76-5.35-1.18-8.02-.21-1.33-1.88-2.08-3.08-1.75-1.42.39-1.96,1.74-1.75,3.08h0Z"/>
    <path class="cls-1" d="M1905.84,1903.86c3.7,23.57,5.25,47.48,4.75,71.33-.5,23.86-3.05,47.66-7.64,71.08-4.56,23.28-11.06,46.22-19.56,68.37-7.57,19.72-16.96,38.83-28.66,56.44s-24.9,32.75-41.21,45.1c-1.98,1.5-4,2.95-6.06,4.35-2.64,1.8-.14,6.14,2.52,4.32,17.3-11.81,31.85-27.07,44.06-44.02,12.6-17.49,22.64-36.71,30.87-56.6,9.03-21.84,15.95-44.6,20.99-67.68,5.19-23.74,8.34-47.95,9.39-72.23s-.07-48.63-3.31-72.71c-.41-3.03-.85-6.06-1.32-9.09-.21-1.33-1.88-2.07-3.08-1.75-1.42.39-1.96,1.74-1.75,3.08h0Z"/>
    <path class="cls-1" d="M1933.88,1894.74c4.05,26.06,5.71,52.48,5.06,78.85-.65,26.37-3.61,52.67-8.85,78.52-5.16,25.45-12.45,50.55-21.99,74.71-8.44,21.36-18.95,42.03-32.15,60.85-12.67,18.06-28.09,34.52-46.55,46.74-2.28,1.51-4.61,2.95-6.97,4.34-2.78,1.62-.26,5.95,2.52,4.32,19.59-11.45,36.07-27.38,49.8-45.34,14.19-18.56,25.43-39.27,34.54-60.74,10.15-23.9,17.92-48.85,23.62-74.18,5.86-26.06,9.44-52.65,10.68-79.32,1.25-26.79.1-53.67-3.46-80.25-.44-3.27-.91-6.54-1.42-9.81-.21-1.34-1.88-2.06-3.08-1.75-1.43.38-1.95,1.75-1.75,3.08h0Z"/>
    <path class="cls-1" d="M1961.91,1885.61c4.41,28.55,6.16,57.5,5.36,86.37-.8,28.77-4.15,57.44-10,85.62-5.74,27.62-13.79,54.87-24.37,81.04-9.31,23.05-20.95,45.35-35.67,65.42-14.13,19.27-31.46,36.53-52.16,48.67-2.53,1.48-5.1,2.88-7.71,4.21-2.87,1.46-.34,5.77,2.52,4.32,21.82-11.09,40.38-27.69,55.59-46.74,15.73-19.7,28.17-41.85,38.21-64.93,11.23-25.81,19.8-52.83,26.12-80.25,6.57-28.46,10.61-57.53,12.05-86.71,1.45-29.19.28-58.5-3.57-87.47-.48-3.63-1-7.26-1.56-10.88-.21-1.34-1.88-2.06-3.08-1.75-1.43.38-1.95,1.75-1.75,3.08h0Z"/>
    <path class="cls-1" d="M1989.95,1876.49c4.76,31.03,6.62,62.5,5.66,93.87-.95,31.26-4.71,62.42-11.22,93.01-6.37,29.94-15.26,59.48-26.97,87.77-10.15,24.52-22.84,48.21-38.96,69.35-15.54,20.39-34.7,38.38-57.47,50.42-2.85,1.5-5.74,2.91-8.68,4.22s-.39,5.62,2.52,4.32c23.86-10.68,44.3-27.76,60.99-47.71,17.38-20.77,31.06-44.46,42.06-69.15,12.36-27.72,21.75-56.85,28.73-86.37,7.33-30.98,11.85-62.64,13.51-94.43,1.66-31.69.44-63.54-3.71-95.01-.51-3.88-1.06-7.76-1.66-11.63-.49-3.17-5.31-1.82-4.82,1.33h0Z"/>
    <path class="cls-1" d="M2017.98,1867.36c5.1,33.41,7.06,67.29,5.97,101.06-1.09,33.79-5.24,67.45-12.4,100.49-6.93,31.97-16.53,63.55-29.21,93.72-11.03,26.25-24.82,51.71-42.52,74.1-16.99,21.48-37.79,40.21-62.58,52.21-3.08,1.49-6.21,2.87-9.38,4.14-2.95,1.18-1.67,6.01,1.33,4.82,26.16-10.43,48.67-27.95,67.09-49.09,18.94-21.74,33.78-46.83,45.71-73,13.57-29.75,23.82-61.12,31.48-92.89,8.03-33.28,13.02-67.32,14.91-101.5,1.9-34.36.65-68.89-3.83-103.02-.54-4.13-1.13-8.25-1.75-12.37-.48-3.17-5.3-1.82-4.82,1.33h0Z"/>
    <path class="cls-1" d="M2046.02,1858.24c5.46,35.94,7.52,72.38,6.27,108.7-1.25,36.19-5.8,72.25-13.59,107.62-7.57,34.33-17.98,68.29-31.87,100.6-11.88,27.65-26.64,54.42-45.67,77.83-18.5,22.76-41.23,42.3-68.21,54.25-3.32,1.47-6.71,2.8-10.13,4.02-3.01,1.08-1.71,5.91,1.33,4.82,28.15-10.07,52.57-28.08,72.51-50.18,20.62-22.85,36.73-49.53,49.64-77.38,14.65-31.59,25.69-64.98,33.99-98.78,8.77-35.73,14.25-72.28,16.36-109.01,2.12-36.79.84-73.77-3.9-110.32-.59-4.51-1.22-9.02-1.91-13.52-.48-3.17-5.3-1.82-4.82,1.33h0Z"/>
    <path class="cls-1" d="M2074.05,1849.11c5.8,38.34,7.97,77.23,6.57,115.98-1.39,38.76-6.35,77.37-14.82,115.22-8.16,36.49-19.36,72.58-34.31,106.89-12.79,29.35-28.7,57.73-49.28,82.37-19.93,23.86-44.59,44.29-73.62,55.99-3.56,1.44-7.17,2.73-10.83,3.91-3.05.99-1.74,5.82,1.33,4.82,30.32-9.8,56.76-28.46,78.31-51.71,22.16-23.9,39.42-52.07,53.25-81.48,15.74-33.47,27.57-68.93,36.5-104.79,9.48-38.06,15.41-77.02,17.75-116.17,2.35-39.37,1.03-78.97-4.03-118.09-.62-4.76-1.28-9.52-2-14.27-.48-3.17-5.3-1.82-4.82,1.33h0Z"/>
  </g>
  <path class="cls-4" d="M2090.64,2007.37c12.51,7,24.7,14.58,36.51,22.71,11.8,8.13,23.22,16.82,34.2,26.02s21.55,18.93,31.65,29.11c10.14,10.23,19.81,20.93,28.96,32.06,9.06,11.02,17.59,22.47,25.56,34.29,1,1.49,2,2.98,2.98,4.48,1.76,2.68,6.09.17,4.32-2.52-8-12.16-16.58-23.93-25.68-35.28-9.05-11.3-18.63-22.17-28.7-32.57s-20.62-20.33-31.61-29.75c-11.05-9.47-22.54-18.43-34.41-26.83s-24.02-16.17-36.58-23.38c-1.55-.89-3.11-1.78-4.68-2.65-2.81-1.57-5.34,2.74-2.52,4.32h0Z"/>
</svg>